<svg xmlns="http://www.w3.org/2000/svg" width="120" height="120" viewBox="0 0 120 120" fill="none"><path fill-rule="evenodd" clip-rule="evenodd" d="M56.8528 107.757C81.5234 107.757 101.523 87.7578 101.523 63.0872C101.523 38.4165 81.5234 18.4172 56.8528 18.4172C32.1823 18.4172 12.1827 38.4165 12.1827 63.0872C12.1827 87.7578 32.1823 107.757 56.8528 107.757ZM56.8528 119.94C88.2518 119.94 113.706 94.4862 113.706 63.0872C113.706 31.6883 88.2518 6.23438 56.8528 6.23438C25.4539 6.23438 0 31.6883 0 63.0872C0 94.4862 25.4539 119.94 56.8528 119.94Z" fill="#1E91E3"></path><path d="M119.905 47.401C117.05 35.9247 111.117 25.4453 102.745 17.0923C94.374 8.73933 83.8813 2.82955 72.3987 0L49.137 71.1077L119.905 47.401Z" fill="#EA5471"></path></svg>